<svg width="1080" height="1080" viewBox="0 0 1080 1080" xmlns="http://www.w3.org/2000/svg">
      <rect width="1080" height="1080" fill="white" />
      <g transform="translate(270, 468) scale(3)">
  <!-- QR Code Icon -->
  <g id="qr-icon">
    <!-- Outer rounded squares -->
    <rect x="2" y="2" width="14" height="14" rx="3" fill="#8B5CF6"/>
    <rect x="4" y="4" width="10" height="10" rx="2" fill="white"/>
    <rect x="6" y="6" width="6" height="6" rx="1" fill="#8B5CF6"/>
    
    <rect x="2" y="22" width="14" height="14" rx="3" fill="#8B5CF6"/>
    <rect x="4" y="24" width="10" height="10" rx="2" fill="white"/>
    <rect x="6" y="26" width="6" height="6" rx="1" fill="#8B5CF6"/>
    
    <rect x="22" y="2" width="14" height="14" rx="3" fill="#8B5CF6"/>
    <rect x="24" y="4" width="10" height="10" rx="2" fill="white"/>
    <rect x="26" y="6" width="6" height="6" rx="1" fill="#8B5CF6"/>
    
    <!-- Center pattern -->
    <rect x="20" y="22" width="3" height="3" rx="0.5" fill="#8B5CF6"/>
    <rect x="24" y="22" width="3" height="3" rx="0.5" fill="#8B5CF6"/>
    <rect x="28" y="22" width="3" height="3" rx="0.5" fill="#8B5CF6"/>
    <rect x="32" y="22" width="3" height="3" rx="0.5" fill="#8B5CF6"/>
    
    <rect x="22" y="27" width="5" height="5" rx="1" fill="#8B5CF6"/>
    <rect x="29" y="27" width="5" height="5" rx="1" fill="#8B5CF6"/>
    
    <rect x="24" y="33" width="3" height="3" rx="0.5" fill="#8B5CF6"/>
    <rect x="30" y="33" width="3" height="3" rx="0.5" fill="#8B5CF6"/>
  </g>
  
  <!-- SwitchQR Text -->
  <text x="48" y="30" font-family="Inter, -apple-system, system-ui, sans-serif" font-size="22" font-weight="700" fill="#1e293b" letter-spacing="-0.02em">SwitchQR</text>
</g>
    </svg>